<svg width="160" viewBox="0 0 337 64" fill="none" xmlns="http://www.w3.org/2000/svg">
<g clip-path="url(#clip0_5_37)">
<rect width="337" height="64" fill="white"/>
<path d="M23.017 38.7727H33.4716L38.7273 45.5341L43.8977 51.5568L53.642 63.7727H42.1648L35.4602 55.5341L32.0227 50.6477L23.017 38.7727ZM54.5227 29.9091C54.5227 36.2538 53.3201 41.6515 50.9148 46.1023C48.5284 50.553 45.2708 53.9527 41.142 56.3011C37.0322 58.6307 32.411 59.7955 27.2784 59.7955C22.108 59.7955 17.4678 58.6212 13.358 56.2727C9.24811 53.9242 6 50.5246 3.61364 46.0739C1.22727 41.6231 0.0340909 36.2348 0.0340909 29.9091C0.0340909 23.5644 1.22727 18.1667 3.61364 13.7159C6 9.26515 9.24811 5.875 13.358 3.54545C17.4678 1.19697 22.108 0.0227251 27.2784 0.0227251C32.411 0.0227251 37.0322 1.19697 41.142 3.54545C45.2708 5.875 48.5284 9.26515 50.9148 13.7159C53.3201 18.1667 54.5227 23.5644 54.5227 29.9091ZM42.0511 29.9091C42.0511 25.7992 41.4356 22.3333 40.2045 19.5114C38.9924 16.6894 37.2784 14.5492 35.0625 13.0909C32.8466 11.6326 30.2519 10.9034 27.2784 10.9034C24.3049 10.9034 21.7102 11.6326 19.4943 13.0909C17.2784 14.5492 15.5549 16.6894 14.3239 19.5114C13.1117 22.3333 12.5057 25.7992 12.5057 29.9091C12.5057 34.0189 13.1117 37.4848 14.3239 40.3068C15.5549 43.1288 17.2784 45.2689 19.4943 46.7273C21.7102 48.1856 24.3049 48.9148 27.2784 48.9148C30.2519 48.9148 32.8466 48.1856 35.0625 46.7273C37.2784 45.2689 38.9924 43.1288 40.2045 40.3068C41.4356 37.4848 42.0511 34.0189 42.0511 29.9091ZM99.5724 0.81818H111.874V38.6023C111.874 42.8447 110.86 46.5568 108.834 49.7386C106.826 52.9205 104.014 55.4015 100.396 57.1818C96.7789 58.9432 92.5649 59.8239 87.7543 59.8239C82.9247 59.8239 78.7012 58.9432 75.0838 57.1818C71.4664 55.4015 68.6539 52.9205 66.6463 49.7386C64.6387 46.5568 63.6349 42.8447 63.6349 38.6023V0.81818H75.9361V37.5511C75.9361 39.767 76.419 41.7367 77.3849 43.4602C78.3698 45.1837 79.7524 46.5379 81.5327 47.5227C83.313 48.5076 85.3868 49 87.7543 49C90.1406 49 92.2145 48.5076 93.9759 47.5227C95.7562 46.5379 97.1293 45.1837 98.0952 43.4602C99.08 41.7367 99.5724 39.767 99.5724 37.5511V0.81818ZM132.023 59H118.841L138.926 0.81818H154.778L174.835 59H161.653L147.08 14.1136H146.625L132.023 59ZM131.199 36.1307H162.335V45.733H131.199V36.1307ZM181.838 59V0.81818H194.139V48.858H219.082V59H181.838Z" fill="#B2B2B2"/>
<path d="M264.994 0.81818H277.295V38.6023C277.295 42.8447 276.282 46.5568 274.256 49.7386C272.248 52.9205 269.436 55.4015 265.818 57.1818C262.201 58.9432 257.987 59.8239 253.176 59.8239C248.347 59.8239 244.123 58.9432 240.506 57.1818C236.888 55.4015 234.076 52.9205 232.068 49.7386C230.061 46.5568 229.057 42.8447 229.057 38.6023V0.81818H241.358V37.5511C241.358 39.767 241.841 41.7367 242.807 43.4602C243.792 45.1837 245.174 46.5379 246.955 47.5227C248.735 48.5076 250.809 49 253.176 49C255.563 49 257.636 48.5076 259.398 47.5227C261.178 46.5379 262.551 45.1837 263.517 43.4602C264.502 41.7367 264.994 39.767 264.994 37.5511V0.81818ZM298.95 0.81818L310.683 20.6477H311.138L322.928 0.81818H336.82L319.064 29.9091L337.217 59H323.07L311.138 39.142H310.683L298.751 59H284.661L302.871 29.9091L285.001 0.81818H298.95Z" fill="#831843"/>
</g>
<defs>
<clipPath id="clip0_5_37">
<rect width="337" height="64" fill="white"/>
</clipPath>
</defs>
</svg>
